int melody[] = {
 NOTE_AS4, NOTE_AS4, NOTE_AS4, NOTE_AS4,
  NOTE_AS4, NOTE_AS4, NOTE_AS4, NOTE_AS4,
  NOTE_AS4, NOTE_AS4, NOTE_AS4, NOTE_AS4,
  NOTE_AS4, NOTE_AS4, NOTE_AS4, NOTE_AS4,
  NOTE_AS4, NOTE_AS4, NOTE_AS4, NOTE_AS4,
  NOTE_D5, NOTE_D5, NOTE_D5, NOTE_D5,
  NOTE_C5, NOTE_C5, NOTE_C5, NOTE_C5, 
  NOTE_F5, NOTE_F5, NOTE_F5, NOTE_F5, 
  NOTE_G5, NOTE_G5, NOTE_G5, NOTE_G5,
  NOTE_G5, NOTE_G5, NOTE_G5, NOTE_G5, 
  NOTE_G5, NOTE_G5, NOTE_G5, NOTE_G5, 
  NOTE_C5, NOTE_AS4, NOTE_A4, NOTE_F4,
  NOTE_G4, 0, NOTE_G4, NOTE_D5,
  NOTE_C5, 0, NOTE_AS4, 0,
  NOTE_A4, 0, NOTE_A4, NOTE_A4,
  NOTE_C5, 0, NOTE_AS4, NOTE_A4, 
  NOTE_G4,0, NOTE_G4, NOTE_AS5,
  NOTE_A5, NOTE_AS5, NOTE_A5, NOTE_AS5,
  NOTE_G4,0, NOTE_G4, NOTE_AS5,
  NOTE_A5, NOTE_AS5, NOTE_A5, NOTE_AS5,
  NOTE_G4, 0, NOTE_G4, NOTE_D5,
  NOTE_C5, 0, NOTE_AS4, 0,
  NOTE_A4, 0, NOTE_A4, NOTE_A4,
  NOTE_C5, 0, NOTE_AS4, NOTE_A4, 
  NOTE_G4,0, NOTE_G4, NOTE_AS5,
  NOTE_A5, NOTE_AS5, NOTE_A5, NOTE_AS5,
  NOTE_G4,0, NOTE_G4, NOTE_AS5,
  NOTE_A5, NOTE_AS5, NOTE_A5, NOTE_AS5

};

// note durations: 8 = quarter note, 4 = 8th note, etc.
int noteDurations[] = {       //duration of the notes
 4,4,4,4,
  4,4,4,4,
  4,4,4,4,
  4,4,4,4,
  4,4,4,4,
  4,4,4,4,
  4,4,4,4,
  4,4,4,4,
  4,4,4,4,
  4,4,4,4,
  4,4,4,4,
  4,4,4,4,
  4,4,4,4,
  4,4,4,4,
  4,4,4,4,
  4,4,4,4,
  4,4,4,4,
  4,4,4,4,
  4,4,4,4,
  4,4,4,4,
  4,4,4,4,
  4,4,4,4,
  4,4,4,4,
  4,4,4,4,
  4,4,4,4,
  4,4,4,4,
  4,4,4,4,
  4,4,4,4,
};
